<?xml version="1.0" encoding="utf-8"?>
<!-- Generator: Adobe Illustrator 24.0.2, SVG Export Plug-In . SVG Version: 6.00 Build 0)  -->
<svg version="1.1" id="Layer_1" xmlns="http://www.w3.org/2000/svg" xmlns:xlink="http://www.w3.org/1999/xlink" x="0px" y="0px"
	 viewBox="0 0 1050 1041" style="enable-background:new 0 0 1050 1041;" xml:space="preserve">
<style type="text/css">
	.st0{display:none;fill:#9696EA;}
	.st1{fill:none;stroke:#E6E6FA;stroke-width:33;stroke-miterlimit:10;}
</style>
<g>
	<rect x="8.5" y="0.5" pointer-events="all" class="st0" width="1040" height="1040"/>
	<path pointer-events="stroke" class="st1" d="M16.4,519.4c43.4-0.4,107.5,21.2,192.2,64.9c84.8,43.7,157.4,71.5,217.9,83.4
		c60.5,11.9,127,11.9,199.6,0c72.6-11.9,145.2-39.3,217.8-82.1s135.5-64.9,188.7-66.1"/>
	<path pointer-events="stroke" class="st1" d="M195.2,578.7c93.8-0.2,177.6-30.7,251.4-91.4c73.8-60.7,128.8-97,165.1-108.9
		c36.3-11.9,72.6-11.9,108.9,0c36.3,11.9,84.7,38.1,145.2,78.6c60.5,40.5,116.1,60.7,167,60.7"/>
	<path pointer-events="stroke" class="st1" d="M16.4,517.6c57.1-1.1,106.5-15.1,148.1-41.9c41.6-26.8,80.6-52.1,116.9-75.9
		c36.3-23.8,72.6-35.7,108.9-35.7c36.3,0,82.3,19,137.9,57.1"/>
	<path pointer-events="stroke" class="st1" d="M375.8,653.4c41.1-9.5,73.2-19.6,96.2-30.4c23-10.7,56.9-33.9,101.6-69.6
		s90.1-41.1,136.1-16.1c46,25,92,39.9,137.9,44.6"/>
</g>
</svg>
